<svg xmlns="http://www.w3.org/2000/svg" viewBox="0 0 64 64" id="scatter-plot"><g data-name="Glyph"><circle cx="23" cy="42" r="2"></circle><circle cx="34" cy="54" r="2"></circle><circle cx="42" cy="42" r="2"></circle><circle cx="26" cy="28" r="2"></circle><circle cx="9" cy="50" r="2"></circle><circle cx="54" cy="43" r="2"></circle><circle cx="52" cy="17" r="2"></circle><circle cx="41" cy="5" r="2"></circle><circle cx="50" cy="30" r="2"></circle><circle cx="20" cy="18" r="2"></circle><circle cx="34" cy="14" r="2"></circle><path d="M61 60H4V3a1 1 0 0 0-2 0v58a1 1 0 0 0 1 1h58a1 1 0 0 0 0-2Z"></path><path d="M61 2C45.828 2 39.263 19.559 33.988 33.667 31.733 39.7 29.6 45.4 27.219 48.375c-7.531 9.413-19.945 7.654-20.068 7.637a1 1 0 0 0-.3 1.976 21.078 21.078 0 0 0 3.009.188c4.474 0 12.96-1.1 18.924-8.551 2.584-3.23 4.668-8.8 7.081-15.258C40.92 20.838 47.215 4 61 4a1 1 0 0 0 0-2Z"></path></g></svg>