<!DOCTYPE svg PUBLIC "-//W3C//DTD SVG 1.1//EN" "http://www.w3.org/Graphics/SVG/1.1/DTD/svg11.dtd">
<!-- Uploaded to: SVG Repo, www.svgrepo.com, Transformed by: SVG Repo Mixer Tools -->
<svg fill="#000000" version="1.1" id="Capa_1" xmlns="http://www.w3.org/2000/svg" xmlns:xlink="http://www.w3.org/1999/xlink" width="800px" height="800px" viewBox="0 0 39.91 39.91" xml:space="preserve" transform="rotate(180)">
<g id="SVGRepo_bgCarrier" stroke-width="0"/>
<g id="SVGRepo_tracerCarrier" stroke-linecap="round" stroke-linejoin="round" stroke="#CCCCCC" stroke-width="0.6385599999999999"/>
<g id="SVGRepo_iconCarrier"> <g> <path d="M34.525,11.564l5.213-1.281l-1.281,5.213L34.525,11.564z M35.123,14.115l-1.617-1.617L10.113,35.891l1.619,1.619 L35.123,14.115z M35.906,14.896L12.512,38.291l1.618,1.619l23.394-23.395L35.906,14.896z M34.174,8.053L8.225,34.004l-8.053-8.053 L26.123,0L34.174,8.053z M8.225,32.217l1.258-1.256l-1.235-1.236l0.894-0.893l1.235,1.236l1.451-1.451l-1.235-1.236l0.893-0.893 l1.236,1.234l1.448-1.449l-1.233-1.236l0.893-0.893l1.234,1.234l1.451-1.451l-1.236-1.234l0.893-0.895l1.236,1.236l1.451-1.451 l-1.236-1.236l0.893-0.893l1.236,1.236l1.451-1.451l-1.236-1.234l0.892-0.893l1.238,1.233l1.449-1.448l-1.236-1.238l0.895-0.894 l1.234,1.236l1.451-1.449l-1.234-1.237l0.893-0.894l1.236,1.236l1.449-1.451L27,10.971l0.895-0.893l1.234,1.236l1.449-1.451 l-1.232-1.234l0.893-0.893l1.234,1.233l0.924-0.922l-6.268-6.266L1.962,25.948L8.225,32.217z"/> </g> </g>
</svg>